<?xml version="1.0" standalone="no"?>
<!DOCTYPE svg PUBLIC "-//W3C//DTD SVG 20010904//EN"
 "http://www.w3.org/TR/2001/REC-SVG-20010904/DTD/svg10.dtd">
<svg version="1.0" xmlns="http://www.w3.org/2000/svg"
 width="256.000000pt" height="256.000000pt" viewBox="0 0 256.000000 256.000000"
 preserveAspectRatio="xMidYMid meet">

<g transform="translate(0.000000,256.000000) scale(0.100000,-0.100000)"
fill="#000000" stroke="none">
<path d="M1210 2551 c-123 -40 -197 -148 -188 -274 l4 -62 -87 -43 c-62 -30
-109 -62 -161 -111 l-73 -70 27 -27 28 -28 52 51 c58 56 143 113 208 139 l41
17 37 -36 c60 -57 97 -72 182 -72 85 0 122 15 182 73 l37 35 43 -16 c119 -46
266 -181 331 -304 55 -106 77 -198 77 -330 0 -61 4 -114 9 -117 5 -3 23 -3 40
0 l31 7 0 106 c0 174 -50 331 -146 463 -63 85 -170 175 -264 221 l-86 42 4 65
c4 52 0 76 -18 118 -20 46 -24 50 -42 41 -17 -9 -25 -7 -46 14 -22 22 -23 28
-12 42 15 18 16 17 -30 40 -38 20 -141 29 -180 16z m108 -253 c-3 -42 -4 -43
-38 -43 -34 0 -35 1 -38 43 l-3 42 41 0 41 0 -3 -42z"/>
<path d="M621 1868 c-60 -106 -84 -199 -89 -349 l-4 -137 31 -7 c17 -3 35 -4
41 0 6 4 10 51 10 113 0 129 18 211 68 312 20 41 38 78 40 82 3 6 -49 38 -62
38 -2 0 -18 -24 -35 -52z"/>
<path d="M533 1300 c-58 -12 -94 -32 -136 -79 -97 -107 -65 -274 66 -344 l42
-22 775 0 775 0 42 22 c131 71 163 237 65 345 -64 71 -101 81 -305 86 -110 3
-183 0 -189 -6 -5 -5 -6 -25 -3 -46 l7 -36 180 0 c196 0 225 -6 262 -57 11
-15 21 -48 23 -77 5 -60 -18 -105 -69 -136 -32 -19 -52 -20 -788 -20 -736 0
-756 1 -788 20 -52 32 -74 76 -69 138 3 46 9 59 41 90 l36 37 202 0 202 0 8
-25 c4 -14 10 -37 12 -51 15 -72 101 -139 181 -139 92 1 163 61 187 160 l13
55 145 5 145 5 0 40 0 40 -115 3 c-63 2 -134 0 -157 -3 -60 -9 -99 -48 -109
-111 -22 -146 -188 -153 -215 -9 -11 62 -36 97 -80 112 -39 14 -320 16 -386 3z"/>
<path d="M567 773 c-14 -4 -16 -11 -12 -36 3 -18 16 -90 28 -162 22 -123 24
-130 48 -133 52 -5 53 3 23 177 -31 173 -28 169 -87 154z"/>
<path d="M915 774 c-9 -4 14 -367 39 -632 l7 -63 -108 3 -107 3 -25 145 -26
145 -30 -3 c-16 -2 -33 -7 -37 -10 -4 -4 7 -87 24 -185 l32 -177 596 0 596 0
32 177 c17 98 28 181 24 185 -4 3 -20 8 -37 10 l-30 3 -25 -145 -26 -145 -107
-3 -107 -3 6 58 c16 158 50 629 47 636 -2 4 -19 7 -37 7 -40 0 -36 28 -68
-397 l-22 -303 -243 0 -243 0 -4 23 c-3 12 -14 148 -26 302 -29 391 -26 375
-58 374 -15 0 -32 -3 -37 -5z"/>
<path d="M1247 773 c-4 -3 -7 -145 -7 -315 l0 -308 40 0 40 0 0 315 0 315 -33
0 c-19 0 -37 -3 -40 -7z"/>
<path d="M1935 759 c-3 -13 -16 -87 -30 -164 -26 -149 -26 -155 25 -155 25 0
26 3 54 161 15 88 26 162 24 165 -3 2 -19 7 -36 10 -27 5 -32 3 -37 -17z"/>
</g>
</svg>
